<svg xmlns="http://www.w3.org/2000/svg" width="440.97mm" height="45.317" viewBox="0 0 1250 34"><path d="M1218.75 0c-15.62 0-15.62 14-31.25 14s-15.62-14-31.25-14-15.62 14-31.25 14-15.62-14-31.25-14-15.62 14-31.25 14-15.62-14-31.25-14-15.61 14-31.25 14-15.61-14-31.24-14-15.62 14-31.25 14-15.62-14-31.25-14S890.64 14 875 14 859.4 0 843.77 0s-15.62 14-31.24 14S796.9 0 781.28 0 765.66 14 750 14 734.41 0 718.79 0s-15.62 14-31.25 14-15.62-14-31.25-14S640.67 14 625 14 609.42 0 593.8 0s-15.62 14-31.25 14S546.92 0 531.3 0 515.67 14 500 14 484.42 0 468.8 0s-15.62 14-31.25 14S421.92 0 406.3 0 390.67 14 375 14 359.42 0 343.79 0s-15.63 14-31.25 14-15.62-14-31.25-14S265.67 14 250 14 234.42 0 218.79 0s-15.63 14-31.25 14-15.63-14-31.25-14S140.66 14 125 14 109.4 0 93.78 0 78.15 14 62.52 14 46.89 0 31.26 0 15.63 14 0 14v20h1250V14c-15.62 0-15.62-14-31.25-14z" fill="#fff"/></svg>