<svg xmlns="http://www.w3.org/2000/svg" width="21" height="18" viewBox="0 0 21 18"><title>icon-cart</title><path d="M20.22,6.9H17L13.44.4a.81.81,0,0,0-1-.32A.69.69,0,0,0,12,1L15.23,6.9H5.77L9,1a.69.69,0,0,0-.35-1,.81.81,0,0,0-1,.32L4,6.9H.78a.72.72,0,1,0,0,1.43H.94l.88,2.86a.69.69,0,0,0-.33.57.74.74,0,0,0,.72.71L3.93,18H17.07l1.71-5.53a.74.74,0,0,0,.72-.71.69.69,0,0,0-.33-.57l.88-2.86h.16a.72.72,0,1,0,0-1.43ZM15.9,16.57H5.1L3.84,12.48H17.16ZM17.61,11H3.39L2.55,8.34H18.45Z" fill="#231f20"/></svg>