<svg xmlns="http://www.w3.org/2000/svg" width="27" height="34" viewBox="0 0 27 34"><title>logo-htmlacademy</title><path d="M13.64,0H13.5L0,1.41V26l13.5,8L27,26V1.41ZM25.23,25,13.5,32,1.77,25V14.93l11.68,6.92,0,1.25-8-4.74v1.22l8,4.81,0,1.29-8-4.76v1.22l8,4.81,8.12-4.83V20.88h0v-4l3.62-2.15Zm0-11.56L22,15.33l-1.48.87L13.47,12v1.22l6,3.57-.05,0-.13.08-.86.5-5-3v1.22L17.39,18l-.93.62h0l-3-1.74v1.22l2,1.14-2,1.19L1.79,13.58l11.64-7h0Zm0-1.22L13.44,5.31h0L1.77,12.22V3L13.5,1.77,25.23,3Z" fill="#63d1bb"/></svg>